<svg version="1.1" id="Layer_1" xmlns="http://www.w3.org/2000/svg" xmlns:xlink="http://www.w3.org/1999/xlink" x="0px" y="0px"
	 width="100%" viewBox="0 0 1220 461" enable-background="new 0 0 1220 461" xml:space="preserve">
<path fill="#FEFEFE" opacity="1.000000" stroke="none" 
	d="
M755.000000,462.000000 
	C503.333374,462.000000 252.166733,462.000000 1.000067,462.000000 
	C1.000045,308.333374 1.000045,154.666763 1.000022,1.000109 
	C407.666595,1.000072 814.333191,1.000072 1220.999756,1.000036 
	C1220.999878,154.666550 1220.999878,308.333099 1221.000000,461.999817 
	C1065.833374,462.000000 910.666687,462.000000 755.000000,462.000000 
M1187.249146,211.179443 
	C1186.153076,210.213348 1185.057007,209.247253 1183.698242,207.924896 
	C1183.698242,207.924896 1183.263550,207.840729 1182.936646,207.240265 
	C1178.287476,204.947205 1173.847046,201.948929 1168.948120,200.500122 
	C1156.756104,196.894333 1145.485718,198.865356 1135.396118,208.247238 
	C1132.506226,212.390137 1129.616333,216.533051 1126.188232,221.158264 
	C1122.871826,228.178528 1122.040527,235.298904 1125.406494,243.340256 
	C1129.083984,254.738358 1136.392334,262.562012 1148.319092,266.743286 
	C1149.571533,266.973602 1150.823975,267.203918 1152.930786,267.773865 
	C1156.606323,267.748627 1160.281860,267.723389 1164.748169,267.900177 
	C1167.490356,267.237671 1170.232666,266.575134 1173.693115,265.912384 
	C1181.021362,262.289886 1187.574341,257.813477 1191.587769,249.739166 
	C1191.765869,249.238464 1191.943970,248.737747 1192.692261,247.797699 
	C1197.401245,238.256973 1197.811401,228.765656 1192.193970,218.707977 
	C1190.629517,216.395401 1189.065063,214.082840 1187.249146,211.179443 
M143.384583,306.456055 
	C143.891418,307.641998 144.398254,308.827972 145.276062,310.643158 
	C146.860260,314.289734 148.063690,318.164581 150.090790,321.545624 
	C162.749069,342.658600 181.152832,353.076324 206.001648,350.136993 
	C228.783142,347.442169 244.741180,335.030243 251.926880,313.355408 
	C256.342407,300.036560 258.382721,285.909332 261.199585,272.085999 
	C266.505859,246.046326 271.709167,219.984543 276.747009,193.891724 
	C279.859985,177.768509 284.350098,161.842896 283.336365,145.107376 
	C282.685547,134.362823 278.904541,124.860161 272.186554,116.822716 
	C254.906921,96.149330 229.877579,90.044472 205.021545,100.532120 
	C189.225006,107.197243 178.246704,119.320877 174.288574,135.809113 
	C167.963333,162.157822 163.228500,188.889160 157.863174,215.467194 
	C153.256775,238.285767 148.708969,261.116180 143.689835,284.123627 
	C143.775818,284.745575 143.861786,285.367554 144.087280,286.815765 
	C143.910049,288.194092 143.732803,289.572418 142.840240,291.222137 
	C143.113770,295.495270 143.387299,299.768402 143.928925,304.670410 
	C143.920303,305.121460 143.911682,305.572540 143.384583,306.456055 
M62.806648,194.071487 
	C62.881081,161.714920 62.955509,129.358353 63.459381,96.697517 
	C63.308014,96.131691 63.156647,95.565872 62.553158,94.250496 
	C49.635155,94.250496 36.717152,94.250496 23.848175,94.250496 
	C23.848175,97.844849 23.847841,101.300903 23.848225,104.756958 
	C23.856833,182.505295 23.867819,260.253632 23.858637,338.001953 
	C23.858442,339.651489 23.626011,341.301056 22.815283,343.218231 
	C23.120871,346.176117 23.426460,349.134033 24.701834,352.149017 
	C36.133919,352.193085 47.566002,352.237152 59.156757,352.611389 
	C59.437683,352.509430 59.718609,352.407471 60.693329,352.128815 
	C61.169437,352.097687 61.645550,352.066589 62.645958,351.793427 
	C62.718910,351.432678 62.791866,351.071899 62.727333,349.818817 
	C62.766594,339.169373 62.813885,328.519989 62.843498,317.870514 
	C62.911972,293.248932 62.971886,268.627380 63.961605,243.998596 
	C66.103760,243.991028 68.268898,244.177124 70.382195,243.926361 
	C72.959557,243.620499 75.493355,242.947495 78.940979,242.175552 
	C83.946701,242.242752 88.952415,242.309937 94.105133,243.025436 
	C95.346275,243.357574 96.587410,243.689713 98.039230,244.935349 
	C98.039230,280.645416 98.039230,316.355469 98.039230,352.214752 
	C111.145195,352.214752 123.600441,352.214752 136.359497,352.635437 
	C136.822159,352.457794 137.284821,352.280151 137.747482,352.102509 
	C137.561752,351.749695 137.376007,351.396881 137.016525,350.115265 
	C137.041763,337.735565 137.067001,325.355896 137.653625,312.482727 
	C137.759125,312.174255 137.928848,311.872253 137.960648,311.556366 
	C138.638382,304.824158 139.642380,298.098358 139.799942,291.353027 
	C139.864212,288.602112 138.086441,285.808167 136.921371,282.116058 
	C136.916016,222.225555 136.908539,162.335068 136.912811,102.444565 
	C136.912979,99.955719 137.022812,97.466866 137.526413,94.709930 
	C137.418671,94.226799 137.310944,93.743668 137.203201,93.260529 
	C136.832016,93.392082 136.460846,93.523628 135.149185,93.785461 
	C122.907089,93.785461 110.664986,93.785461 98.008774,93.785461 
	C98.008774,100.642952 98.019272,106.927582 98.006973,113.212173 
	C97.949043,142.808304 97.884880,172.404434 97.409698,202.196899 
	C97.251122,202.607193 97.092545,203.017487 96.054749,203.741821 
	C85.720009,203.667709 75.385269,203.593597 64.898903,202.795685 
	C64.257919,200.195419 63.616932,197.595169 62.806648,194.071487 
M357.575226,330.993256 
	C359.349365,336.712891 361.200439,342.410278 362.864838,348.161682 
	C363.681122,350.982422 365.188934,352.159210 368.233582,352.109100 
	C377.395691,351.958221 386.562256,352.077484 395.727081,352.089752 
	C398.109833,352.092957 400.492584,352.090240 403.413818,352.090240 
	C402.249542,348.220490 401.377136,345.203796 400.435425,342.208893 
	C391.409302,313.503662 382.344177,284.810699 373.346436,256.096619 
	C367.233246,236.587860 361.129669,217.075058 355.253845,197.494415 
	C354.566956,195.205307 354.553986,192.070770 355.585297,190.005783 
	C370.971405,159.198807 386.589966,128.507950 402.131195,97.778320 
	C402.689819,96.673698 403.017273,95.452171 403.601471,93.885582 
	C391.010864,93.885582 379.026154,93.773926 367.049438,94.032814 
	C365.619751,94.063728 363.631073,95.817062 362.918427,97.270630 
	C353.327423,116.832481 343.931549,136.489929 334.434082,156.097900 
	C333.683777,157.646988 332.539459,159.005249 331.578278,160.452209 
	C330.964111,160.341675 330.349915,160.231125 329.735748,160.120590 
	C328.915558,138.181702 329.852661,116.192329 329.587006,94.203568 
	C316.420776,94.203568 303.701599,94.203568 290.927063,94.203568 
	C290.927063,180.303528 290.927063,266.025238 290.927063,351.675873 
	C304.065033,351.675873 316.780670,351.675873 329.742889,351.675873 
	C329.742889,349.939178 329.749268,348.626373 329.741974,347.313660 
	C329.585510,319.153015 329.392731,290.992462 329.318512,262.831604 
	C329.310181,259.680695 329.972809,256.528015 330.324280,253.376144 
	C330.787201,253.380814 331.250122,253.385498 331.713043,253.390182 
	C340.237488,279.014832 348.761932,304.639465 357.575226,330.993256 
M583.368286,324.500732 
	C583.299316,310.337555 583.542908,296.162872 583.020325,282.016449 
	C582.783813,275.613708 581.567993,269.114410 579.827698,262.931580 
	C577.304810,253.968246 571.279419,247.615158 562.613403,244.027451 
	C546.378662,237.306259 522.245850,246.014679 513.863708,261.516815 
	C512.950500,263.205719 511.911987,264.826904 510.256927,267.616699 
	C508.658936,264.508545 507.418427,262.469208 506.523407,260.288086 
	C503.227539,252.256042 497.428253,246.895859 489.343323,243.970383 
	C473.674133,238.300522 454.006226,244.182297 442.964783,257.779388 
	C441.031769,260.159851 439.092957,262.535675 437.156830,264.913666 
	C436.783295,264.785522 436.409760,264.657410 436.036224,264.529297 
	C436.036224,257.706787 436.036224,250.884247 436.036224,243.992645 
	C430.130524,243.992645 424.859009,243.992645 419.569214,243.992645 
	C419.569214,280.272064 419.569214,316.295197 419.569214,351.987854 
	C425.868866,351.987854 431.749695,351.987854 438.080811,351.987854 
	C438.080811,348.089935 438.080261,344.776276 438.080902,341.462616 
	C438.084045,324.965698 438.010956,308.468292 438.113098,291.972015 
	C438.208923,276.499786 451.204590,261.512848 466.459808,259.048035 
	C476.674133,257.397705 485.373322,261.825592 488.767029,271.573029 
	C490.697815,277.118713 491.661255,283.247986 491.765533,289.137390 
	C492.104736,308.293396 491.847168,327.459961 491.820007,346.622467 
	C491.817474,348.398163 491.819641,350.173859 491.819641,352.105347 
	C498.263855,352.105347 504.171173,352.105347 510.653564,352.105347 
	C510.653564,349.166443 510.651855,346.543488 510.653870,343.920563 
	C510.667053,326.923767 511.136658,309.911041 510.543182,292.935486 
	C510.108521,280.501770 521.229065,265.180054 532.883240,260.731964 
	C546.061890,255.702042 557.492859,260.255066 562.410706,273.449829 
	C564.052063,277.853546 564.623230,282.864075 564.688782,287.610962 
	C564.962463,307.436737 564.852051,327.267792 564.901611,347.096863 
	C564.905945,348.834167 565.049133,350.571136 565.123596,352.216003 
	C571.414734,352.216003 577.020935,352.216003 583.370728,352.216003 
	C583.370728,343.095367 583.370728,334.298065 583.368286,324.500732 
M1042.830811,364.500061 
	C1042.830811,354.052765 1042.830811,343.605499 1042.830811,333.158203 
	C1044.942749,334.154419 1045.990112,335.211548 1046.828125,336.414398 
	C1063.354736,360.133606 1101.886963,360.684418 1119.596069,336.128754 
	C1132.688354,317.974731 1134.641846,297.922302 1127.440796,276.353119 
	C1117.285645,245.935806 1073.537720,225.984680 1045.220093,258.652008 
	C1044.129761,259.909790 1042.324463,260.547699 1040.281372,261.833893 
	C1040.609619,255.148911 1040.878784,249.665253 1041.149048,244.162354 
	C1035.192017,244.162354 1029.973022,244.162354 1024.707520,244.162354 
	C1024.707520,294.944580 1024.707520,345.317413 1024.707520,395.664459 
	C1030.828125,395.664459 1036.582153,395.664459 1042.830566,395.664459 
	C1042.830566,385.391296 1042.830566,375.445709 1042.830811,364.500061 
M876.545288,329.987701 
	C866.041382,340.055878 849.082397,343.158722 836.715576,337.274994 
	C823.318787,330.901245 814.369202,317.131653 815.571350,304.173096 
	C845.098938,304.173096 874.676758,304.173096 904.162598,304.173096 
	C909.012085,275.347778 888.068726,246.842651 859.145813,242.289673 
	C829.155518,237.568665 800.443970,258.556854 795.481750,288.828156 
	C790.468872,319.409210 811.209167,349.428741 840.269348,353.653473 
	C865.311096,357.294006 895.136536,343.297119 897.684753,326.338837 
	C895.478394,325.835724 893.218201,325.396057 890.999695,324.801117 
	C882.117981,322.419128 882.122742,322.401367 876.545288,329.987701 
M754.842224,269.343445 
	C745.106506,278.955353 735.370728,288.567230 724.640381,299.161072 
	C724.640381,265.581879 724.640381,233.263184 724.640381,200.950745 
	C718.031982,200.950745 712.160706,200.950745 706.399292,200.950745 
	C706.399292,251.661560 706.399292,301.886780 706.399292,352.128387 
	C712.705078,352.128387 718.577881,352.128387 724.696899,352.128387 
	C724.696899,342.452118 724.480591,333.293152 724.828796,324.155701 
	C724.933289,321.414459 725.930054,318.120148 727.704712,316.145996 
	C732.030823,311.333649 737.104126,307.200012 741.771179,302.684113 
	C744.185852,300.347717 746.087524,300.681946 747.916626,303.283447 
	C757.581665,317.030365 767.202087,330.809296 776.969849,344.482910 
	C778.942932,347.244904 781.159485,351.280029 783.831726,351.798004 
	C789.616638,352.919189 795.769165,352.143280 802.833740,352.143280 
	C799.590454,347.712494 796.923462,344.145020 794.335876,340.520813 
	C783.412415,325.221069 772.872986,309.626404 761.398254,294.752838 
	C757.655212,289.901154 758.289185,287.717255 762.154236,283.930908 
	C772.620178,273.678192 782.719910,263.050568 792.915955,252.524277 
	C795.475220,249.882141 797.850464,247.061798 800.587524,244.014679 
	C793.799805,244.014679 788.012024,243.833664 782.249146,244.132324 
	C780.658081,244.214783 778.858643,245.436752 777.636292,246.629364 
	C770.128967,253.954208 762.759827,261.420624 754.842224,269.343445 
M682.786499,263.771454 
	C675.721436,249.697769 663.354492,243.619522 648.565979,242.108475 
	C632.052917,240.421219 617.062988,245.541260 602.921082,253.841782 
	C597.908691,256.783722 600.060486,259.672485 602.088318,262.841248 
	C605.134277,267.600983 606.874695,268.017334 610.692627,265.502716 
	C618.426453,260.408936 626.731873,256.920441 636.089417,255.854584 
	C657.135437,253.457382 672.092712,267.498047 668.324219,292.052032 
	C666.241089,291.496124 664.182617,291.023529 662.171692,290.397980 
	C647.287476,285.767822 632.344971,285.169128 617.526855,290.376190 
	C605.094116,294.745117 595.186584,302.050049 593.244202,316.161377 
	C591.335876,330.024536 596.838623,340.902344 608.424500,348.595032 
	C624.932556,359.555939 654.614685,353.342041 666.640991,340.094696 
	C667.814819,338.801666 669.017944,337.535065 670.996399,335.408020 
	C672.193481,341.655304 671.456421,347.576721 677.047607,350.882782 
	C682.210449,353.935577 687.482422,352.911774 693.206909,352.585846 
	C693.206909,347.892853 693.312805,343.749542 693.140015,339.617920 
	C693.090576,338.437103 692.473511,336.487518 691.707581,336.258362 
	C686.897217,334.819580 687.246460,330.977478 687.213928,327.345703 
	C687.087036,313.190338 687.430420,299.016235 686.784790,284.886292 
	C686.471924,278.040924 684.356384,271.277924 682.786499,263.771454 
M999.029236,342.710785 
	C998.795593,340.484833 998.749390,338.218079 998.276001,336.044342 
	C997.793030,333.826294 995.915771,331.496582 996.318481,329.563568 
	C1001.873657,302.898834 1007.728577,276.296600 1013.465454,249.669449 
	C1013.861511,247.831512 1013.905273,245.917664 1014.123718,243.940765 
	C1007.712524,243.940765 1001.943481,243.940765 995.782288,243.940765 
	C991.586426,264.104645 987.274597,284.083435 983.304932,304.129974 
	C979.914490,321.251495 959.289307,338.491272 941.916565,338.320984 
	C933.464050,338.238098 927.740295,333.287933 926.884766,324.818420 
	C926.486633,320.876862 926.285339,316.747742 927.003784,312.891632 
	C929.436707,299.832733 932.280457,286.849304 935.045349,273.853668 
	C937.141113,264.002869 939.356018,254.177399 941.623474,243.860245 
	C935.819458,243.860245 931.012024,244.000534 926.217896,243.808258 
	C923.285767,243.690659 922.396484,244.768890 921.807190,247.662949 
	C917.494324,268.844360 912.577637,289.908142 908.589539,311.147644 
	C907.104553,319.056061 906.747681,327.403320 907.396118,335.427643 
	C908.199585,345.371185 916.877930,353.135040 926.209656,353.879669 
	C945.309692,355.403870 961.602051,349.539368 974.744995,335.357758 
	C976.065125,333.933380 977.834167,332.924988 979.394897,331.723541 
	C979.728943,332.018616 980.063049,332.313690 980.397095,332.608765 
	C979.901489,333.929901 979.057251,335.229950 978.975708,336.576202 
	C978.730347,340.629272 977.226562,345.700989 979.057007,348.546021 
	C982.373413,353.700745 988.997437,354.078003 994.485413,352.478699 
	C996.459595,351.903381 997.253479,347.262878 998.570618,344.470367 
	C998.710266,344.174255 998.745667,343.828979 999.029236,342.710785 
z"/>
<path fill="#030303" opacity="1.000000" stroke="none" 
	d="
M23.501919,342.950592 
	C23.626011,341.301056 23.858442,339.651489 23.858637,338.001953 
	C23.867819,260.253632 23.856833,182.505295 23.848225,104.756958 
	C23.847841,101.300903 23.848175,97.844849 23.848175,94.250496 
	C36.717152,94.250496 49.635155,94.250496 62.676735,94.954880 
	C62.876854,96.106773 62.953396,96.554283 63.029938,97.001785 
	C62.955509,129.358353 62.881081,161.714920 62.750832,194.892426 
	C62.593208,197.659409 62.228348,199.645660 62.516800,201.532028 
	C62.635086,202.305588 64.163551,202.863495 65.050529,203.519485 
	C75.385269,203.593597 85.720009,203.667709 96.775070,203.650299 
	C97.604568,203.039368 97.713753,202.519974 97.822937,202.000565 
	C97.884880,172.404434 97.949043,142.808304 98.006973,113.212173 
	C98.019272,106.927582 98.008774,100.642952 98.008774,93.785461 
	C110.664986,93.785461 122.907089,93.785461 135.737793,93.972687 
	C136.578110,94.432617 136.829834,94.705322 137.081543,94.978020 
	C137.022812,97.466866 136.912979,99.955719 136.912811,102.444565 
	C136.908539,162.335068 136.916016,222.225555 136.848145,282.933472 
	C136.880676,293.492645 136.986450,303.234436 137.092224,312.976196 
	C137.067001,325.355896 137.041763,337.735565 136.883698,350.743408 
	C136.519135,351.652618 136.287399,351.933685 136.055679,352.214752 
	C123.600441,352.214752 111.145195,352.214752 98.039230,352.214752 
	C98.039230,316.355469 98.039230,280.645416 97.984177,244.098831 
	C96.605469,242.967255 95.281807,242.672195 93.958138,242.377136 
	C88.952415,242.309937 83.946701,242.242752 78.052307,242.132446 
	C73.386818,242.049850 69.603012,241.873352 65.837997,242.065308 
	C64.873291,242.114502 63.967915,243.327499 63.035278,244.005814 
	C62.971886,268.627380 62.911972,293.248932 62.843498,317.870514 
	C62.813885,328.519989 62.766594,339.169373 62.594048,350.433350 
	C62.347729,351.377075 62.234695,351.706268 62.121662,352.035461 
	C61.645550,352.066589 61.169437,352.097687 60.098885,352.095215 
	C59.335655,352.134827 59.166870,352.208038 58.998089,352.281219 
	C47.566002,352.237152 36.133919,352.193085 24.204571,351.659637 
	C23.638844,348.430359 23.570381,345.690491 23.501919,342.950592 
z"/>
<path fill="#030303" opacity="1.000000" stroke="none" 
	d="
M144.135239,283.941345 
	C148.708969,261.116180 153.256775,238.285767 157.863174,215.467194 
	C163.228500,188.889160 167.963333,162.157822 174.288574,135.809113 
	C178.246704,119.320877 189.225006,107.197243 205.021545,100.532120 
	C229.877579,90.044472 254.906921,96.149330 272.186554,116.822716 
	C278.904541,124.860161 282.685547,134.362823 283.336365,145.107376 
	C284.350098,161.842896 279.859985,177.768509 276.747009,193.891724 
	C271.709167,219.984543 266.505859,246.046326 261.199585,272.085999 
	C258.382721,285.909332 256.342407,300.036560 251.926880,313.355408 
	C244.741180,335.030243 228.783142,347.442169 206.001648,350.136993 
	C181.152832,353.076324 162.749069,342.658600 150.090790,321.545624 
	C148.063690,318.164581 146.860260,314.289734 145.153564,309.978577 
	C144.655060,308.217163 144.279068,307.120392 143.903061,306.023590 
	C143.911682,305.572540 143.920303,305.121460 143.893677,303.898285 
	C143.757462,299.067688 143.656525,295.009216 143.555573,290.950745 
	C143.732803,289.572418 143.910049,288.194092 144.175140,286.177002 
	C144.220398,285.005951 144.177826,284.473633 144.135239,283.941345 
M200.776505,198.233276 
	C198.213074,211.440048 195.702621,224.657364 193.073334,237.851013 
	C189.470963,255.927414 185.677917,273.966339 182.164429,292.059723 
	C180.241943,301.959869 185.905396,309.987823 195.733749,311.901031 
	C205.571625,313.816071 213.918854,308.562469 216.321213,297.681000 
	C221.518661,274.139069 226.173920,250.476593 230.963684,226.845718 
	C235.886688,202.557358 240.743515,178.255386 245.548721,153.943436 
	C247.093262,146.128937 242.817474,140.889893 237.085907,136.637589 
	C231.457184,132.461594 225.664032,132.534836 219.858231,136.028732 
	C213.599762,139.795059 211.091019,145.595306 209.810333,152.439682 
	C207.000809,167.454865 203.922012,182.419678 200.776505,198.233276 
z"/>
<path fill="#030303" opacity="1.000000" stroke="none" 
	d="
M357.430786,330.628662 
	C348.761932,304.639465 340.237488,279.014832 331.713043,253.390182 
	C331.250122,253.385498 330.787201,253.380814 330.324280,253.376144 
	C329.972809,256.528015 329.310181,259.680695 329.318512,262.831604 
	C329.392731,290.992462 329.585510,319.153015 329.741974,347.313660 
	C329.749268,348.626373 329.742889,349.939178 329.742889,351.675873 
	C316.780670,351.675873 304.065033,351.675873 290.927063,351.675873 
	C290.927063,266.025238 290.927063,180.303528 290.927063,94.203568 
	C303.701599,94.203568 316.420776,94.203568 329.587006,94.203568 
	C329.852661,116.192329 328.915558,138.181702 329.735748,160.120590 
	C330.349915,160.231125 330.964111,160.341675 331.578278,160.452209 
	C332.539459,159.005249 333.683777,157.646988 334.434082,156.097900 
	C343.931549,136.489929 353.327423,116.832481 362.918427,97.270630 
	C363.631073,95.817062 365.619751,94.063728 367.049438,94.032814 
	C379.026154,93.773926 391.010864,93.885582 403.601471,93.885582 
	C403.017273,95.452171 402.689819,96.673698 402.131195,97.778320 
	C386.589966,128.507950 370.971405,159.198807 355.585297,190.005783 
	C354.553986,192.070770 354.566956,195.205307 355.253845,197.494415 
	C361.129669,217.075058 367.233246,236.587860 373.346436,256.096619 
	C382.344177,284.810699 391.409302,313.503662 400.435425,342.208893 
	C401.377136,345.203796 402.249542,348.220490 403.413818,352.090240 
	C400.492584,352.090240 398.109833,352.092957 395.727081,352.089752 
	C386.562256,352.077484 377.395691,351.958221 368.233582,352.109100 
	C365.188934,352.159210 363.681122,350.982422 362.864838,348.161682 
	C361.200439,342.410278 359.349365,336.712891 357.430786,330.628662 
z"/>
<path fill="#080708" opacity="1.000000" stroke="none" 
	d="
M583.369507,325.000732 
	C583.370728,334.298065 583.370728,343.095367 583.370728,352.216003 
	C577.020935,352.216003 571.414734,352.216003 565.123596,352.216003 
	C565.049133,350.571136 564.905945,348.834167 564.901611,347.096863 
	C564.852051,327.267792 564.962463,307.436737 564.688782,287.610962 
	C564.623230,282.864075 564.052063,277.853546 562.410706,273.449829 
	C557.492859,260.255066 546.061890,255.702042 532.883240,260.731964 
	C521.229065,265.180054 510.108521,280.501770 510.543182,292.935486 
	C511.136658,309.911041 510.667053,326.923767 510.653870,343.920563 
	C510.651855,346.543488 510.653564,349.166443 510.653564,352.105347 
	C504.171173,352.105347 498.263855,352.105347 491.819641,352.105347 
	C491.819641,350.173859 491.817474,348.398163 491.820007,346.622467 
	C491.847168,327.459961 492.104736,308.293396 491.765533,289.137390 
	C491.661255,283.247986 490.697815,277.118713 488.767029,271.573029 
	C485.373322,261.825592 476.674133,257.397705 466.459808,259.048035 
	C451.204590,261.512848 438.208923,276.499786 438.113098,291.972015 
	C438.010956,308.468292 438.084045,324.965698 438.080902,341.462616 
	C438.080261,344.776276 438.080811,348.089935 438.080811,351.987854 
	C431.749695,351.987854 425.868866,351.987854 419.569214,351.987854 
	C419.569214,316.295197 419.569214,280.272064 419.569214,243.992645 
	C424.859009,243.992645 430.130524,243.992645 436.036224,243.992645 
	C436.036224,250.884247 436.036224,257.706787 436.036224,264.529297 
	C436.409760,264.657410 436.783295,264.785522 437.156830,264.913666 
	C439.092957,262.535675 441.031769,260.159851 442.964783,257.779388 
	C454.006226,244.182297 473.674133,238.300522 489.343323,243.970383 
	C497.428253,246.895859 503.227539,252.256042 506.523407,260.288086 
	C507.418427,262.469208 508.658936,264.508545 510.256927,267.616699 
	C511.911987,264.826904 512.950500,263.205719 513.863708,261.516815 
	C522.245850,246.014679 546.378662,237.306259 562.613403,244.027451 
	C571.279419,247.615158 577.304810,253.968246 579.827698,262.931580 
	C581.567993,269.114410 582.783813,275.613708 583.020325,282.016449 
	C583.542908,296.162872 583.299316,310.337555 583.369507,325.000732 
z"/>
<path fill="#070606" opacity="1.000000" stroke="none" 
	d="
M1042.830688,365.000092 
	C1042.830566,375.445709 1042.830566,385.391296 1042.830566,395.664459 
	C1036.582153,395.664459 1030.828125,395.664459 1024.707520,395.664459 
	C1024.707520,345.317413 1024.707520,294.944580 1024.707520,244.162354 
	C1029.973022,244.162354 1035.192017,244.162354 1041.149048,244.162354 
	C1040.878784,249.665253 1040.609619,255.148911 1040.281372,261.833893 
	C1042.324463,260.547699 1044.129761,259.909790 1045.220093,258.652008 
	C1073.537720,225.984680 1117.285645,245.935806 1127.440796,276.353119 
	C1134.641846,297.922302 1132.688354,317.974731 1119.596069,336.128754 
	C1101.886963,360.684418 1063.354736,360.133606 1046.828125,336.414398 
	C1045.990112,335.211548 1044.942749,334.154419 1042.830811,333.158203 
	C1042.830811,343.605499 1042.830811,354.052765 1042.830688,365.000092 
M1082.342651,258.757080 
	C1069.611328,256.078461 1059.666504,261.742096 1050.625610,269.635345 
	C1045.246948,274.331238 1042.387329,280.291779 1042.808228,287.709106 
	C1043.090576,292.685089 1043.261353,297.731110 1042.770020,302.674988 
	C1041.446777,315.989105 1048.540771,324.822876 1058.280151,331.996124 
	C1071.270630,341.564087 1087.956665,339.906311 1099.916870,329.128326 
	C1119.437500,311.537262 1118.212769,268.847717 1082.342651,258.757080 
z"/>
<path fill="#060505" opacity="1.000000" stroke="none" 
	d="
M876.785034,329.717194 
	C882.122742,322.401367 882.117981,322.419128 890.999695,324.801117 
	C893.218201,325.396057 895.478394,325.835724 897.684753,326.338837 
	C895.136536,343.297119 865.311096,357.294006 840.269348,353.653473 
	C811.209167,349.428741 790.468872,319.409210 795.481750,288.828156 
	C800.443970,258.556854 829.155518,237.568665 859.145813,242.289673 
	C888.068726,246.842651 909.012085,275.347778 904.162598,304.173096 
	C874.676758,304.173096 845.098938,304.173096 815.571350,304.173096 
	C814.369202,317.131653 823.318787,330.901245 836.715576,337.274994 
	C849.082397,343.158722 866.041382,340.055878 876.785034,329.717194 
M860.499939,290.762451 
	C869.454163,290.762451 878.408386,290.762451 887.348572,290.762451 
	C888.104004,275.686310 871.168274,255.445251 849.802307,255.907822 
	C831.034302,256.314148 814.355530,272.653259 814.722717,290.343811 
	C815.006897,290.502228 815.290955,290.799072 815.575195,290.799133 
	C830.216736,290.802704 844.858337,290.781036 860.499939,290.762451 
z"/>
<path fill="#090809" opacity="1.000000" stroke="none" 
	d="
M755.093506,269.091675 
	C762.759827,261.420624 770.128967,253.954208 777.636292,246.629364 
	C778.858643,245.436752 780.658081,244.214783 782.249146,244.132324 
	C788.012024,243.833664 793.799805,244.014679 800.587524,244.014679 
	C797.850464,247.061798 795.475220,249.882141 792.915955,252.524277 
	C782.719910,263.050568 772.620178,273.678192 762.154236,283.930908 
	C758.289185,287.717255 757.655212,289.901154 761.398254,294.752838 
	C772.872986,309.626404 783.412415,325.221069 794.335876,340.520813 
	C796.923462,344.145020 799.590454,347.712494 802.833740,352.143280 
	C795.769165,352.143280 789.616638,352.919189 783.831726,351.798004 
	C781.159485,351.280029 778.942932,347.244904 776.969849,344.482910 
	C767.202087,330.809296 757.581665,317.030365 747.916626,303.283447 
	C746.087524,300.681946 744.185852,300.347717 741.771179,302.684113 
	C737.104126,307.200012 732.030823,311.333649 727.704712,316.145996 
	C725.930054,318.120148 724.933289,321.414459 724.828796,324.155701 
	C724.480591,333.293152 724.696899,342.452118 724.696899,352.128387 
	C718.577881,352.128387 712.705078,352.128387 706.399292,352.128387 
	C706.399292,301.886780 706.399292,251.661560 706.399292,200.950745 
	C712.160706,200.950745 718.031982,200.950745 724.640381,200.950745 
	C724.640381,233.263184 724.640381,265.581879 724.640381,299.161072 
	C735.370728,288.567230 745.106506,278.955353 755.093506,269.091675 
z"/>
<path fill="#070607" opacity="1.000000" stroke="none" 
	d="
M682.921753,264.124542 
	C684.356384,271.277924 686.471924,278.040924 686.784790,284.886292 
	C687.430420,299.016235 687.087036,313.190338 687.213928,327.345703 
	C687.246460,330.977478 686.897217,334.819580 691.707581,336.258362 
	C692.473511,336.487518 693.090576,338.437103 693.140015,339.617920 
	C693.312805,343.749542 693.206909,347.892853 693.206909,352.585846 
	C687.482422,352.911774 682.210449,353.935577 677.047607,350.882782 
	C671.456421,347.576721 672.193481,341.655304 670.996399,335.408020 
	C669.017944,337.535065 667.814819,338.801666 666.640991,340.094696 
	C654.614685,353.342041 624.932556,359.555939 608.424500,348.595032 
	C596.838623,340.902344 591.335876,330.024536 593.244202,316.161377 
	C595.186584,302.050049 605.094116,294.745117 617.526855,290.376190 
	C632.344971,285.169128 647.287476,285.767822 662.171692,290.397980 
	C664.182617,291.023529 666.241089,291.496124 668.324219,292.052032 
	C672.092712,267.498047 657.135437,253.457382 636.089417,255.854584 
	C626.731873,256.920441 618.426453,260.408936 610.692627,265.502716 
	C606.874695,268.017334 605.134277,267.600983 602.088318,262.841248 
	C600.060486,259.672485 597.908691,256.783722 602.921082,253.841782 
	C617.062988,245.541260 632.052917,240.421219 648.565979,242.108475 
	C663.354492,243.619522 675.721436,249.697769 682.921753,264.124542 
M668.806091,312.473450 
	C668.638977,302.932465 670.787231,303.889252 659.976257,301.001831 
	C658.370178,300.572876 656.793579,299.938019 655.160461,299.720825 
	C642.878296,298.087524 630.649536,296.829376 619.417542,304.093414 
	C607.507446,311.795929 607.303101,327.712311 619.052124,335.715485 
	C628.926575,342.441772 639.507507,341.201141 649.678894,337.430939 
	C663.450928,332.326080 669.982971,324.796295 668.806091,312.473450 
z"/>
<path fill="#060606" opacity="1.000000" stroke="none" 
	d="
M998.929321,343.108643 
	C998.745667,343.828979 998.710266,344.174255 998.570618,344.470367 
	C997.253479,347.262878 996.459595,351.903381 994.485413,352.478699 
	C988.997437,354.078003 982.373413,353.700745 979.057007,348.546021 
	C977.226562,345.700989 978.730347,340.629272 978.975708,336.576202 
	C979.057251,335.229950 979.901489,333.929901 980.397095,332.608765 
	C980.063049,332.313690 979.728943,332.018616 979.394897,331.723541 
	C977.834167,332.924988 976.065125,333.933380 974.744995,335.357758 
	C961.602051,349.539368 945.309692,355.403870 926.209656,353.879669 
	C916.877930,353.135040 908.199585,345.371185 907.396118,335.427643 
	C906.747681,327.403320 907.104553,319.056061 908.589539,311.147644 
	C912.577637,289.908142 917.494324,268.844360 921.807190,247.662949 
	C922.396484,244.768890 923.285767,243.690659 926.217896,243.808258 
	C931.012024,244.000534 935.819458,243.860245 941.623474,243.860245 
	C939.356018,254.177399 937.141113,264.002869 935.045349,273.853668 
	C932.280457,286.849304 929.436707,299.832733 927.003784,312.891632 
	C926.285339,316.747742 926.486633,320.876862 926.884766,324.818420 
	C927.740295,333.287933 933.464050,338.238098 941.916565,338.320984 
	C959.289307,338.491272 979.914490,321.251495 983.304932,304.129974 
	C987.274597,284.083435 991.586426,264.104645 995.782288,243.940765 
	C1001.943481,243.940765 1007.712524,243.940765 1014.123718,243.940765 
	C1013.905273,245.917664 1013.861511,247.831512 1013.465454,249.669449 
	C1007.728577,276.296600 1001.873657,302.898834 996.318481,329.563568 
	C995.915771,331.496582 997.793030,333.826294 998.276001,336.044342 
	C998.749390,338.218079 998.795593,340.484833 998.929321,343.108643 
z"/>
<path fill="#322D31" opacity="1.000000" stroke="none" 
	d="
M1147.931274,266.220947 
	C1136.392334,262.562012 1129.083984,254.738358 1125.610474,242.722656 
	C1127.534790,241.739487 1129.255127,241.373917 1131.024170,241.381729 
	C1131.829590,243.310654 1132.547974,244.886200 1133.349487,246.418304 
	C1137.171875,253.725388 1142.357178,259.040497 1150.764648,261.512054 
	C1157.385376,263.458374 1163.493164,262.701843 1169.874512,261.722443 
	C1170.615723,263.065582 1171.315063,264.038910 1171.578857,265.008026 
	C1168.772339,265.966919 1164.792603,262.639313 1163.957397,267.698181 
	C1160.281860,267.723389 1156.606323,267.748627 1152.477783,267.264038 
	C1150.660400,266.576477 1149.295776,266.398712 1147.931274,266.220947 
z"/>
<path fill="#3E3C3D" opacity="1.000000" stroke="none" 
	d="
M1136.029541,208.009766 
	C1145.485718,198.865356 1156.756104,196.894333 1168.948120,200.500122 
	C1173.847046,201.948929 1178.287476,204.947205 1182.770020,207.719254 
	C1182.081543,209.761185 1181.559448,211.324127 1180.720215,212.772217 
	C1176.276489,210.418167 1172.150269,208.178970 1168.033936,205.594177 
	C1167.362671,204.498459 1166.681396,203.748322 1165.912964,202.606201 
	C1161.876953,202.169525 1157.928101,202.124847 1153.617188,202.121841 
	C1152.548462,203.522079 1151.841919,204.880630 1150.831543,206.429321 
	C1146.123657,209.108505 1141.719604,211.597565 1137.022461,213.928589 
	C1136.990967,212.771652 1137.549927,211.735916 1137.431763,210.784164 
	C1137.311890,209.816284 1136.524536,208.931152 1136.029541,208.009766 
z"/>
<path fill="#3E3C3D" opacity="1.000000" stroke="none" 
	d="
M1172.014404,265.012207 
	C1171.315063,264.038910 1170.615723,263.065582 1170.152832,261.525330 
	C1173.762573,258.903687 1177.559692,257.304352 1180.391968,254.668213 
	C1183.315186,251.947311 1185.300049,248.218033 1188.015381,245.139236 
	C1189.274658,246.919479 1190.213989,248.490372 1191.153442,250.061249 
	C1187.574341,257.813477 1181.021362,262.289886 1173.228271,265.710938 
	C1172.565063,265.266266 1172.315430,265.100525 1172.014404,265.012207 
z"/>
<path fill="#5D5C5D" opacity="1.000000" stroke="none" 
	d="
M1130.975586,241.008331 
	C1129.255127,241.373917 1127.534790,241.739487 1125.569702,242.345093 
	C1122.040527,235.298904 1122.871826,228.178528 1126.573608,221.273132 
	C1128.304443,222.924576 1129.649902,224.461151 1131.078613,226.458008 
	C1131.099609,231.614975 1131.037598,236.311646 1130.975586,241.008331 
z"/>
<path fill="#3E3C3D" opacity="1.000000" stroke="none" 
	d="
M1192.365234,219.341629 
	C1197.811401,228.765656 1197.401245,238.256973 1192.360840,247.594574 
	C1191.039673,244.930374 1190.049805,242.469315 1188.985229,239.557434 
	C1189.024902,236.062683 1189.139282,233.018738 1189.596924,229.874756 
	C1190.748535,226.297028 1191.556885,222.819321 1192.365234,219.341629 
z"/>
<path fill="#282629" opacity="1.000000" stroke="none" 
	d="
M1192.279541,219.024811 
	C1191.556885,222.819321 1190.748535,226.297028 1189.483643,229.492920 
	C1186.363892,223.769775 1183.700684,218.328415 1181.037476,212.887054 
	C1181.559448,211.324127 1182.081543,209.761185 1182.933594,208.019485 
	C1183.263550,207.840729 1183.698242,207.924896 1183.833740,208.473114 
	C1185.146240,209.937637 1186.323486,210.853943 1187.500610,211.770264 
	C1189.065063,214.082840 1190.629517,216.395401 1192.279541,219.024811 
z"/>
<path fill="#282629" opacity="1.000000" stroke="none" 
	d="
M1130.995361,225.997711 
	C1129.649902,224.461151 1128.304443,222.924576 1126.842773,221.031967 
	C1129.616333,216.533051 1132.506226,212.390137 1135.712891,208.128510 
	C1136.524536,208.931152 1137.311890,209.816284 1137.431763,210.784164 
	C1137.549927,211.735916 1136.990967,212.771652 1136.895020,214.258011 
	C1135.038940,218.496231 1133.017090,222.246964 1130.995361,225.997711 
z"/>
<path fill="#E7E6E2" opacity="1.000000" stroke="none" 
	d="
M137.372925,312.729462 
	C136.986450,303.234436 136.880676,293.492645 136.960815,283.392334 
	C138.086441,285.808167 139.864212,288.602112 139.799942,291.353027 
	C139.642380,298.098358 138.638382,304.824158 137.960648,311.556366 
	C137.928848,311.872253 137.759125,312.174255 137.372925,312.729462 
z"/>
<path fill="#E7E6E2" opacity="1.000000" stroke="none" 
	d="
M63.498444,244.002197 
	C63.967915,243.327499 64.873291,242.114502 65.837997,242.065308 
	C69.603012,241.873352 73.386818,242.049850 77.604813,242.261322 
	C75.493355,242.947495 72.959557,243.620499 70.382195,243.926361 
	C68.268898,244.177124 66.103760,243.991028 63.498444,244.002197 
z"/>
<path fill="#282629" opacity="1.000000" stroke="none" 
	d="
M1189.059937,240.008255 
	C1190.049805,242.469315 1191.039673,244.930374 1192.075684,247.814240 
	C1191.943970,248.737747 1191.765869,249.238464 1191.370605,249.900208 
	C1190.213989,248.490372 1189.274658,246.919479 1188.064575,244.776398 
	C1188.215820,242.805573 1188.637817,241.406906 1189.059937,240.008255 
z"/>
<path fill="#E7E6E2" opacity="1.000000" stroke="none" 
	d="
M143.197906,291.086426 
	C143.656525,295.009216 143.757462,299.067688 143.759613,303.583862 
	C143.387299,299.768402 143.113770,295.495270 143.197906,291.086426 
z"/>
<path fill="#49454B" opacity="1.000000" stroke="none" 
	d="
M1171.578857,265.007996 
	C1172.315430,265.100525 1172.565063,265.266266 1172.869141,265.711060 
	C1170.232666,266.575134 1167.490356,267.237671 1164.352783,267.799194 
	C1164.792603,262.639313 1168.772339,265.966919 1171.578857,265.007996 
z"/>
<path fill="#E7E6E2" opacity="1.000000" stroke="none" 
	d="
M64.974716,203.157593 
	C64.163551,202.863495 62.635086,202.305588 62.516800,201.532028 
	C62.228348,199.645660 62.593208,197.659409 62.835480,195.354126 
	C63.616932,197.595169 64.257919,200.195419 64.974716,203.157593 
z"/>
<path fill="#E7E6E2" opacity="1.000000" stroke="none" 
	d="
M23.158600,343.084412 
	C23.570381,345.690491 23.638844,348.430359 23.719679,351.631104 
	C23.426460,349.134033 23.120871,346.176117 23.158600,343.084412 
z"/>
<path fill="#49454B" opacity="1.000000" stroke="none" 
	d="
M1148.125244,266.482117 
	C1149.295776,266.398712 1150.660400,266.576477 1152.050659,267.094238 
	C1150.823975,267.203918 1149.571533,266.973602 1148.125244,266.482117 
z"/>
<path fill="#3E3C3D" opacity="1.000000" stroke="none" 
	d="
M1187.374878,211.474854 
	C1186.323486,210.853943 1185.146240,209.937637 1183.965088,208.651245 
	C1185.057007,209.247253 1186.153076,210.213348 1187.374878,211.474854 
z"/>
<path fill="#E7E6E2" opacity="1.000000" stroke="none" 
	d="
M94.031631,242.701294 
	C95.281807,242.672195 96.605469,242.967255 97.878838,243.642090 
	C96.587410,243.689713 95.346275,243.357574 94.031631,242.701294 
z"/>
<path fill="#E7E6E2" opacity="1.000000" stroke="none" 
	d="
M143.643829,306.239807 
	C144.279068,307.120392 144.655060,308.217163 144.968079,309.663940 
	C144.398254,308.827972 143.891418,307.641998 143.643829,306.239807 
z"/>
<path fill="#E7E6E2" opacity="1.000000" stroke="none" 
	d="
M136.207581,352.425110 
	C136.287399,351.933685 136.519135,351.652618 136.970551,351.207825 
	C137.376007,351.396881 137.561752,351.749695 137.747482,352.102509 
	C137.284821,352.280151 136.822159,352.457794 136.207581,352.425110 
z"/>
<path fill="#E7E6E2" opacity="1.000000" stroke="none" 
	d="
M137.303986,94.843979 
	C136.829834,94.705322 136.578110,94.432617 136.208038,93.907547 
	C136.460846,93.523628 136.832016,93.392082 137.203201,93.260529 
	C137.310944,93.743668 137.418671,94.226799 137.303986,94.843979 
z"/>
<path fill="#E7E6E2" opacity="1.000000" stroke="none" 
	d="
M143.912537,284.032471 
	C144.177826,284.473633 144.220398,285.005951 144.105377,285.763855 
	C143.861786,285.367554 143.775818,284.745575 143.912537,284.032471 
z"/>
<path fill="#E7E6E2" opacity="1.000000" stroke="none" 
	d="
M97.616318,202.098724 
	C97.713753,202.519974 97.604568,203.039368 97.214676,203.493286 
	C97.092545,203.017487 97.251122,202.607193 97.616318,202.098724 
z"/>
<path fill="#E7E6E2" opacity="1.000000" stroke="none" 
	d="
M63.244659,96.849655 
	C62.953396,96.554283 62.876854,96.106773 62.902794,95.329659 
	C63.156647,95.565872 63.308014,96.131691 63.244659,96.849655 
z"/>
<path fill="#E7E6E2" opacity="1.000000" stroke="none" 
	d="
M62.383812,351.914429 
	C62.234695,351.706268 62.347729,351.377075 62.662788,350.879517 
	C62.791866,351.071899 62.718910,351.432678 62.383812,351.914429 
z"/>
<path fill="#E7E6E2" opacity="1.000000" stroke="none" 
	d="
M59.077423,352.446289 
	C59.166870,352.208038 59.335655,352.134827 59.751987,352.183563 
	C59.718609,352.407471 59.437683,352.509430 59.077423,352.446289 
z"/>
<path fill="#FCFCFB" opacity="1.000000" stroke="none" 
	d="
M200.864838,197.819168 
	C203.922012,182.419678 207.000809,167.454865 209.810333,152.439682 
	C211.091019,145.595306 213.599762,139.795059 219.858231,136.028732 
	C225.664032,132.534836 231.457184,132.461594 237.085907,136.637589 
	C242.817474,140.889893 247.093262,146.128937 245.548721,153.943436 
	C240.743515,178.255386 235.886688,202.557358 230.963684,226.845718 
	C226.173920,250.476593 221.518661,274.139069 216.321213,297.681000 
	C213.918854,308.562469 205.571625,313.816071 195.733749,311.901031 
	C185.905396,309.987823 180.241943,301.959869 182.164429,292.059723 
	C185.677917,273.966339 189.470963,255.927414 193.073334,237.851013 
	C195.702621,224.657364 198.213074,211.440048 200.864838,197.819168 
z"/>
<path fill="#FDFDFD" opacity="1.000000" stroke="none" 
	d="
M1082.744141,258.857056 
	C1118.212769,268.847717 1119.437500,311.537262 1099.916870,329.128326 
	C1087.956665,339.906311 1071.270630,341.564087 1058.280151,331.996124 
	C1048.540771,324.822876 1041.446777,315.989105 1042.770020,302.674988 
	C1043.261353,297.731110 1043.090576,292.685089 1042.808228,287.709106 
	C1042.387329,280.291779 1045.246948,274.331238 1050.625610,269.635345 
	C1059.666504,261.742096 1069.611328,256.078461 1082.744141,258.857056 
z"/>
<path fill="#F9F9F9" opacity="1.000000" stroke="none" 
	d="
M859.999878,290.762268 
	C844.858337,290.781036 830.216736,290.802704 815.575195,290.799133 
	C815.290955,290.799072 815.006897,290.502228 814.724365,290.340851 
	C814.355530,272.653259 831.034302,256.314148 849.802307,255.907822 
	C871.168274,255.445251 888.104004,275.686310 887.348572,290.762451 
	C878.408386,290.762451 869.454163,290.762451 859.999878,290.762268 
z"/>
<path fill="#FBFBFB" opacity="1.000000" stroke="none" 
	d="
M668.807007,312.938171 
	C669.982971,324.796295 663.450928,332.326080 649.678894,337.430939 
	C639.507507,341.201141 628.926575,342.441772 619.052124,335.715485 
	C607.303101,327.712311 607.507446,311.795929 619.417542,304.093414 
	C630.649536,296.829376 642.878296,298.087524 655.160461,299.720825 
	C656.793579,299.938019 658.370178,300.572876 659.976257,301.001831 
	C670.787231,303.889252 668.638977,302.932465 668.807007,312.938171 
z"/>
<path fill="#F5F4F4" opacity="1.000000" stroke="none" 
	d="
M1188.985229,239.557434 
	C1188.637817,241.406906 1188.215820,242.805573 1187.744629,244.567047 
	C1185.300049,248.218033 1183.315186,251.947311 1180.391968,254.668213 
	C1177.559692,257.304352 1173.762573,258.903687 1170.110840,261.155518 
	C1163.493164,262.701843 1157.385376,263.458374 1150.764648,261.512054 
	C1142.357178,259.040497 1137.171875,253.725388 1133.349487,246.418304 
	C1132.547974,244.886200 1131.829590,243.310654 1131.024292,241.381714 
	C1131.037598,236.311646 1131.099609,231.614975 1131.078613,226.458008 
	C1133.017090,222.246964 1135.038940,218.496231 1137.188232,214.416046 
	C1141.719604,211.597565 1146.123657,209.108505 1151.256592,206.437683 
	C1157.331665,206.150528 1162.677734,206.045151 1168.023926,205.939758 
	C1172.150269,208.178970 1176.276489,210.418167 1180.720215,212.772202 
	C1183.700684,218.328415 1186.363892,223.769775 1189.140259,229.592957 
	C1189.139282,233.018738 1189.024902,236.062683 1188.985229,239.557434 
M1149.684570,254.964127 
	C1150.364258,254.312225 1151.043945,253.660324 1151.962524,252.278976 
	C1151.908447,251.519272 1151.854370,250.759567 1151.903564,249.093887 
	C1151.903564,246.124344 1151.903564,243.154800 1151.903564,240.285263 
	C1158.073242,238.397369 1159.932495,238.961243 1163.110352,243.773041 
	C1164.751099,246.257507 1166.199829,248.868958 1167.728760,251.426971 
	C1169.512451,254.411285 1172.025269,255.712219 1175.622803,255.096909 
	C1176.447388,249.419800 1172.290405,246.519028 1169.623657,242.920624 
	C1167.456543,239.996460 1166.393066,237.768585 1171.033691,235.942215 
	C1172.798828,235.247559 1173.824219,232.673172 1175.425293,230.388290 
	C1175.377319,229.981110 1175.329468,229.573944 1175.968506,228.744614 
	C1176.507080,222.055237 1172.859131,217.543411 1167.597656,213.030060 
	C1160.920776,212.815033 1154.244507,212.563004 1147.565918,212.456161 
	C1147.039795,212.447769 1146.497437,213.449570 1145.414185,214.531357 
	C1145.314819,216.346054 1145.215454,218.160736 1144.814453,220.873840 
	C1144.691528,230.507172 1144.572998,240.140564 1144.443115,249.773804 
	C1144.400879,252.904816 1144.788208,255.609924 1149.684570,254.964127 
z"/>
<path fill="#6C6A6B" opacity="1.000000" stroke="none" 
	d="
M1168.033936,205.594177 
	C1162.677734,206.045151 1157.331665,206.150528 1151.560425,206.247543 
	C1151.841919,204.880630 1152.548462,203.522079 1153.921387,202.396637 
	C1158.391724,202.752533 1162.195923,202.875351 1166.000000,202.998169 
	C1166.681396,203.748322 1167.362671,204.498459 1168.033936,205.594177 
z"/>
<path fill="#49454B" opacity="1.000000" stroke="none" 
	d="
M1165.912964,202.606201 
	C1162.195923,202.875351 1158.391724,202.752533 1154.283447,202.354950 
	C1157.928101,202.124847 1161.876953,202.169525 1165.912964,202.606201 
z"/>
<path fill="#0D0B0B" opacity="1.000000" stroke="none" 
	d="
M1151.723633,253.008423 
	C1151.043945,253.660324 1150.364258,254.312225 1149.318359,254.448853 
	C1148.628784,251.997711 1148.048218,250.064758 1148.026123,248.125443 
	C1147.929688,239.644745 1147.926514,231.161209 1148.047241,222.680954 
	C1148.079834,220.394150 1147.768433,219.073608 1145.116089,219.975433 
	C1145.215454,218.160736 1145.314819,216.346054 1146.112183,214.296600 
	C1147.616943,214.232635 1148.431152,214.580429 1149.229126,214.546127 
	C1155.520264,214.275558 1161.808105,213.932068 1168.097046,213.611023 
	C1172.859131,217.543411 1176.507080,222.055237 1175.329346,228.773026 
	C1174.289429,227.860901 1173.888672,226.920364 1173.487915,225.979843 
	C1173.124512,226.202957 1172.761230,226.426071 1172.397827,226.649185 
	C1173.327515,228.084641 1174.257202,229.520096 1175.186768,230.955521 
	C1173.824219,232.673172 1172.798828,235.247559 1171.033691,235.942215 
	C1166.393066,237.768585 1167.456543,239.996460 1169.623657,242.920624 
	C1172.290405,246.519028 1176.447388,249.419800 1175.622803,255.096909 
	C1172.025269,255.712219 1169.512451,254.411285 1167.728760,251.426971 
	C1166.199829,248.868958 1164.751099,246.257507 1163.110352,243.773041 
	C1159.932495,238.961243 1158.073242,238.397369 1151.903564,240.285263 
	C1151.903564,243.154800 1151.903564,246.124344 1151.649902,249.748505 
	C1151.505371,251.271545 1151.614502,252.139984 1151.723633,253.008423 
M1169.559692,228.947281 
	C1170.350830,228.197632 1171.141968,227.447983 1171.933105,226.698303 
	C1170.801392,225.873917 1169.669556,225.049515 1168.060181,223.667038 
	C1167.218750,222.446381 1166.522095,220.323151 1165.510864,220.160950 
	C1161.081177,219.450455 1156.560425,219.307907 1152.168213,218.966751 
	C1152.168213,224.625992 1152.168213,229.202484 1152.168213,233.934479 
	C1155.689331,233.934479 1158.822021,233.795090 1161.937012,233.970291 
	C1165.704712,234.182205 1167.866089,232.487823 1169.559692,228.947281 
z"/>
<path fill="#2E2C2F" opacity="1.000000" stroke="none" 
	d="
M1144.965332,220.424637 
	C1147.768433,219.073608 1148.079834,220.394150 1148.047241,222.680954 
	C1147.926514,231.161209 1147.929688,239.644745 1148.026123,248.125443 
	C1148.048218,250.064758 1148.628784,251.997711 1149.000000,254.335754 
	C1144.788208,255.609924 1144.400879,252.904816 1144.443115,249.773804 
	C1144.572998,240.140564 1144.691528,230.507172 1144.965332,220.424637 
z"/>
<path fill="#2E2C2F" opacity="1.000000" stroke="none" 
	d="
M1167.847412,213.320541 
	C1161.808105,213.932068 1155.520264,214.275558 1149.229126,214.546127 
	C1148.431152,214.580429 1147.616943,214.232635 1146.386475,214.021866 
	C1146.497437,213.449570 1147.039795,212.447769 1147.565918,212.456161 
	C1154.244507,212.563004 1160.920776,212.815033 1167.847412,213.320541 
z"/>
<path fill="#282629" opacity="1.000000" stroke="none" 
	d="
M1175.306152,230.671921 
	C1174.257202,229.520096 1173.327515,228.084641 1172.397827,226.649185 
	C1172.761230,226.426071 1173.124512,226.202957 1173.487915,225.979843 
	C1173.888672,226.920364 1174.289429,227.860901 1174.985840,228.984100 
	C1175.329468,229.573944 1175.377319,229.981110 1175.306152,230.671921 
z"/>
<path fill="#2E2C2F" opacity="1.000000" stroke="none" 
	d="
M1151.843018,252.643707 
	C1151.614502,252.139984 1151.505371,251.271545 1151.598389,250.201477 
	C1151.854370,250.759567 1151.908447,251.519272 1151.843018,252.643707 
z"/>
<path fill="#F5F4F4" opacity="1.000000" stroke="none" 
	d="
M1168.759888,228.938675 
	C1167.866089,232.487823 1165.704712,234.182205 1161.937012,233.970291 
	C1158.822021,233.795090 1155.689331,233.934479 1152.168213,233.934479 
	C1152.168213,229.202484 1152.168213,224.625992 1152.168213,218.966751 
	C1156.560425,219.307907 1161.081177,219.450455 1165.510864,220.160950 
	C1166.522095,220.323151 1167.218750,222.446381 1168.319702,224.340363 
	C1168.639404,226.322006 1168.699585,227.630341 1168.759888,228.938675 
z"/>
<path fill="#282629" opacity="1.000000" stroke="none" 
	d="
M1169.159790,228.942978 
	C1168.699585,227.630341 1168.639404,226.322006 1168.558594,224.619385 
	C1169.669556,225.049515 1170.801392,225.873917 1171.933105,226.698303 
	C1171.141968,227.447983 1170.350830,228.197632 1169.159790,228.942978 
z"/>
</svg>